<svg xmlns="http://www.w3.org/2000/svg" xmlns:xlink="http://www.w3.org/1999/xlink" version="1.1" data-diagram-type="SEQUENCE" style="width:1107px;height:778px;background:#FFFFFF;" width="1107px" height="778px" viewBox="0 0 1107 778" zoomAndPan="magnify" preserveAspectRatio="none" contentStyleType="text/css"><?plantuml 1.2026.8?><defs/><g font-family="sans-serif" lengthAdjust="spacing"><g class="title" data-source-line="1"><text x="492.061" y="27.995" fill="#000" font-size="14" textLength="121.584" font-weight="700">TCP の接続の流れ</text></g><rect x="43" y="165.156" width="330.275" height="85.398" fill="none" style="stroke:#000;stroke-width:1.5;"/><rect x="477.351" y="297.688" width="610.354" height="368.938" fill="none" style="stroke:#000;stroke-width:1.5;"/><rect x="496.351" y="448.023" width="566.354" height="204.602" fill="none" style="stroke:#000;stroke-width:1.5;"/><g><title>......</title><rect x="55.5" y="94.891" width="8" height="624.867" fill="#000" fill-opacity="0"/><line x1="59" y1="94.891" x2="59" y2="719.758" style="stroke:#181818;stroke-width:0.5;stroke-dasharray:5,5;"/></g><g><title>tcp.rs</title><rect x="185.068" y="94.891" width="8" height="624.867" fill="#000" fill-opacity="0"/><line x1="188.568" y1="94.891" x2="188.568" y2="719.758" style="stroke:#181818;stroke-width:0.5;stroke-dasharray:5,5;"/></g><g><title>Runtime</title><rect x="353.775" y="94.891" width="8" height="624.867" fill="#000" fill-opacity="0"/><line x1="357.275" y1="94.891" x2="357.275" y2="719.758" style="stroke:#181818;stroke-width:0.5;stroke-dasharray:5,5;"/></g><g><title>TLS</title><rect x="508.851" y="94.891" width="8" height="624.867" fill="#000" fill-opacity="0"/><line x1="512.351" y1="94.891" x2="512.351" y2="719.758" style="stroke:#181818;stroke-width:0.5;stroke-dasharray:5,5;"/></g><g><title>L7</title><rect x="662.851" y="94.891" width="8" height="624.867" fill="#000" fill-opacity="0"/><line x1="666.351" y1="94.891" x2="666.351" y2="719.758" style="stroke:#181818;stroke-width:0.5;stroke-dasharray:5,5;"/></g><g><title>.....</title><rect x="815.122" y="94.891" width="8" height="624.867" fill="#000" fill-opacity="0"/><line x1="818.622" y1="94.891" x2="818.622" y2="719.758" style="stroke:#181818;stroke-width:0.5;stroke-dasharray:5,5;"/></g><g><title>...</title><rect x="1043.206" y="94.891" width="8" height="624.867" fill="#000" fill-opacity="0"/><line x1="1046.706" y1="94.891" x2="1046.706" y2="719.758" style="stroke:#181818;stroke-width:0.5;stroke-dasharray:5,5;"/></g><rect x="10" y="63.594" width="98" height="30.297" fill="#E2E2F0" style="stroke:#181818;stroke-width:0.5;" rx="2.5" ry="2.5"/><text x="17" y="83.589" fill="#000" font-size="14" textLength="84">クライアント</text><rect x="161.781" y="63.594" width="53.573" height="30.297" fill="#E2E2F0" style="stroke:#181818;stroke-width:0.5;" rx="2.5" ry="2.5"/><text x="168.781" y="83.589" fill="#000" font-size="14" textLength="39.573">tcp.rs</text><rect x="264.867" y="47.297" width="184.816" height="46.594" fill="#E2E2F0" style="stroke:#181818;stroke-width:0.5;" rx="2.5" ry="2.5"/><text x="327.724" y="67.292" fill="#000" font-size="14" textLength="59.104">Runtime</text><text x="271.867" y="83.589" fill="#000" font-size="14" textLength="170.816">(allow_from・CrowdSec)</text><rect x="459.684" y="47.297" width="105.335" height="46.594" fill="#E2E2F0" style="stroke:#181818;stroke-width:0.5;" rx="2.5" ry="2.5"/><text x="499.732" y="67.292" fill="#000" font-size="14" textLength="25.238">TLS</text><text x="466.684" y="83.589" fill="#000" font-size="14" textLength="91.335">(tlsconf / sni)</text><rect x="606.253" y="47.297" width="120.196" height="46.594" fill="#E2E2F0" style="stroke:#181818;stroke-width:0.5;" rx="2.5" ry="2.5"/><text x="657.998" y="67.292" fill="#000" font-size="14" textLength="16.707">L7</text><text x="613.253" y="83.589" fill="#000" font-size="14" textLength="106.196">(http/server.rs)</text><rect x="769.851" y="47.297" width="97.542" height="46.594" fill="#E2E2F0" style="stroke:#181818;stroke-width:0.5;" rx="2.5" ry="2.5"/><text x="783.622" y="67.292" fill="#000" font-size="14" textLength="70">宛先の選択</text><text x="776.851" y="83.589" fill="#000" font-size="14" textLength="83.542">(balance.rs)</text><rect x="1018.706" y="63.594" width="56" height="30.297" fill="#E2E2F0" style="stroke:#181818;stroke-width:0.5;" rx="2.5" ry="2.5"/><text x="1025.706" y="83.589" fill="#000" font-size="14" textLength="42">転送先</text><rect x="10" y="719.758" width="98" height="30.297" fill="#E2E2F0" style="stroke:#181818;stroke-width:0.5;" rx="2.5" ry="2.5"/><text x="17" y="739.753" fill="#000" font-size="14" textLength="84">クライアント</text><rect x="161.781" y="719.758" width="53.573" height="30.297" fill="#E2E2F0" style="stroke:#181818;stroke-width:0.5;" rx="2.5" ry="2.5"/><text x="168.781" y="739.753" fill="#000" font-size="14" textLength="39.573">tcp.rs</text><rect x="264.867" y="719.758" width="184.816" height="46.594" fill="#E2E2F0" style="stroke:#181818;stroke-width:0.5;" rx="2.5" ry="2.5"/><text x="327.724" y="739.753" fill="#000" font-size="14" textLength="59.104">Runtime</text><text x="271.867" y="756.05" fill="#000" font-size="14" textLength="170.816">(allow_from・CrowdSec)</text><rect x="459.684" y="719.758" width="105.335" height="46.594" fill="#E2E2F0" style="stroke:#181818;stroke-width:0.5;" rx="2.5" ry="2.5"/><text x="499.732" y="739.753" fill="#000" font-size="14" textLength="25.238">TLS</text><text x="466.684" y="756.05" fill="#000" font-size="14" textLength="91.335">(tlsconf / sni)</text><rect x="606.253" y="719.758" width="120.196" height="46.594" fill="#E2E2F0" style="stroke:#181818;stroke-width:0.5;" rx="2.5" ry="2.5"/><text x="657.998" y="739.753" fill="#000" font-size="14" textLength="16.707">L7</text><text x="613.253" y="756.05" fill="#000" font-size="14" textLength="106.196">(http/server.rs)</text><rect x="769.851" y="719.758" width="97.542" height="46.594" fill="#E2E2F0" style="stroke:#181818;stroke-width:0.5;" rx="2.5" ry="2.5"/><text x="783.622" y="739.753" fill="#000" font-size="14" textLength="70">宛先の選択</text><text x="776.851" y="756.05" fill="#000" font-size="14" textLength="83.542">(balance.rs)</text><rect x="1018.706" y="719.758" width="56" height="30.297" fill="#E2E2F0" style="stroke:#181818;stroke-width:0.5;" rx="2.5" ry="2.5"/><text x="1025.706" y="739.753" fill="#000" font-size="14" textLength="42">転送先</text><polygon points="176.568,120.023,186.568,124.023,176.568,128.023,180.568,124.023" fill="#181818" style="stroke:#181818;stroke-width:1;stroke-linejoin:miter;stroke-miterlimit:10;"/><line x1="59" y1="124.023" x2="182.568" y2="124.023" style="stroke:#181818;stroke-width:1;"/><text x="66" y="118.958" fill="#000" font-size="13" textLength="26">接続</text><polygon points="345.275,149.156,355.275,153.156,345.275,157.156,349.275,153.156" fill="#181818" style="stroke:#181818;stroke-width:1;stroke-linejoin:miter;stroke-miterlimit:10;"/><line x1="188.568" y1="153.156" x2="351.275" y2="153.156" style="stroke:#181818;stroke-width:1;"/><text x="195.568" y="148.09" fill="#000" font-size="13" textLength="144.708">allow_from / crowdsec</text><path d="M43,165.156 L107.443,165.156 L107.443,172.289 L97.443,182.289 L43,182.289 L43,165.156" style="stroke:#000;stroke-width:1.5;" fill="#EEE"/><rect x="43" y="165.156" width="330.275" height="85.398" fill="none" style="stroke:#000;stroke-width:1.5;"/><text x="58" y="178.223" fill="#000" font-size="13" textLength="19.443" font-weight="700">alt</text><text x="122.443" y="177.367" fill="#000" font-size="11" textLength="32.742" font-weight="700">[拒否]</text><polygon points="199.568,209.422,189.568,213.422,199.568,217.422,195.568,213.422" fill="#181818" style="stroke:#181818;stroke-width:1;stroke-linejoin:miter;stroke-miterlimit:10;"/><line x1="193.568" y1="213.422" x2="356.275" y2="213.422" style="stroke:#181818;stroke-width:1;stroke-dasharray:2,2;"/><text x="205.568" y="208.356" fill="#000" font-size="13" textLength="44.351">denied</text><polygon points="70,238.555,60,242.555,70,246.555,66,242.555" fill="#181818" style="stroke:#181818;stroke-width:1;stroke-linejoin:miter;stroke-miterlimit:10;"/><line x1="64" y1="242.555" x2="187.568" y2="242.555" style="stroke:#181818;stroke-width:1;stroke-dasharray:2,2;"/><text x="76" y="237.489" fill="#000" font-size="13" textLength="105.568">切断（TLS の前）</text><polygon points="500.351,281.688,510.351,285.688,500.351,289.688,504.351,285.688" fill="#181818" style="stroke:#181818;stroke-width:1;stroke-linejoin:miter;stroke-miterlimit:10;"/><line x1="188.568" y1="285.688" x2="506.351" y2="285.688" style="stroke:#181818;stroke-width:1;"/><text x="195.568" y="280.622" fill="#000" font-size="13" textLength="56.481">tls.mode</text><path d="M477.351,297.688 L541.794,297.688 L541.794,304.82 L531.794,314.82 L477.351,314.82 L477.351,297.688" style="stroke:#000;stroke-width:1.5;" fill="#EEE"/><rect x="477.351" y="297.688" width="610.354" height="368.938" fill="none" style="stroke:#000;stroke-width:1.5;"/><text x="492.351" y="310.754" fill="#000" font-size="13" textLength="19.443" font-weight="700">alt</text><text x="556.794" y="309.898" fill="#000" font-size="11" textLength="260.09" font-weight="700">[passthrough / sni / passthrough の route]</text><polygon points="806.622,341.953,816.622,345.953,806.622,349.953,810.622,345.953" fill="#181818" style="stroke:#181818;stroke-width:1;stroke-linejoin:miter;stroke-miterlimit:10;"/><line x1="512.351" y1="345.953" x2="812.622" y2="345.953" style="stroke:#181818;stroke-width:1;"/><text x="519.351" y="340.887" fill="#000" font-size="13" textLength="91">サーバ名で宛先</text><polygon points="1034.706,371.086,1044.706,375.086,1034.706,379.086,1038.706,375.086" fill="#181818" style="stroke:#181818;stroke-width:1;stroke-linejoin:miter;stroke-miterlimit:10;"/><line x1="818.622" y1="375.086" x2="1040.706" y2="375.086" style="stroke:#181818;stroke-width:1;"/><text x="825.622" y="370.02" fill="#000" font-size="13" textLength="178.718">接続（ClientHello ごと流す）</text><line x1="477.351" y1="384.086" x2="1087.706" y2="384.086" style="stroke:#000;stroke-width:1;stroke-dasharray:2,2;"/><text x="482.351" y="396.296" fill="#000" font-size="11" textLength="71.403" font-weight="700">[terminate]</text><line x1="512.351" y1="423.023" x2="554.351" y2="423.023" style="stroke:#181818;stroke-width:1;"/><line x1="554.351" y1="423.023" x2="554.351" y2="436.023" style="stroke:#181818;stroke-width:1;"/><line x1="513.351" y1="436.023" x2="554.351" y2="436.023" style="stroke:#181818;stroke-width:1;"/><polygon points="523.351,432.023,513.351,436.023,523.351,440.023,519.351,436.023" fill="#181818" style="stroke:#181818;stroke-width:1;stroke-linejoin:miter;stroke-miterlimit:10;"/><text x="519.351" y="417.958" fill="#000" font-size="13" textLength="117">証明書を選んで終端</text><path d="M496.351,448.023 L560.794,448.023 L560.794,455.156 L550.794,465.156 L496.351,465.156 L496.351,448.023" style="stroke:#000;stroke-width:1.5;" fill="#EEE"/><rect x="496.351" y="448.023" width="566.354" height="204.602" fill="none" style="stroke:#000;stroke-width:1.5;"/><text x="511.351" y="461.09" fill="#000" font-size="13" textLength="19.443" font-weight="700">alt</text><text x="575.794" y="460.234" fill="#000" font-size="11" textLength="85.481" font-weight="700">[http のルール]</text><polygon points="654.351,492.289,664.351,496.289,654.351,500.289,658.351,496.289" fill="#181818" style="stroke:#181818;stroke-width:1;stroke-linejoin:miter;stroke-miterlimit:10;"/><line x1="512.351" y1="496.289" x2="660.351" y2="496.289" style="stroke:#181818;stroke-width:1;"/><text x="519.351" y="491.223" fill="#000" font-size="13" textLength="130">リクエストごとに処理</text><line x1="666.351" y1="525.422" x2="708.351" y2="525.422" style="stroke:#181818;stroke-width:1;"/><line x1="708.351" y1="525.422" x2="708.351" y2="538.422" style="stroke:#181818;stroke-width:1;"/><line x1="667.351" y1="538.422" x2="708.351" y2="538.422" style="stroke:#181818;stroke-width:1;"/><polygon points="677.351,534.422,667.351,538.422,677.351,542.422,673.351,538.422" fill="#181818" style="stroke:#181818;stroke-width:1;stroke-linejoin:miter;stroke-miterlimit:10;"/><text x="673.351" y="520.356" fill="#000" font-size="13" textLength="138.271">match → ミドルウェア</text><polygon points="1034.706,563.555,1044.706,567.555,1034.706,571.555,1038.706,567.555" fill="#181818" style="stroke:#181818;stroke-width:1;stroke-linejoin:miter;stroke-miterlimit:10;"/><line x1="666.351" y1="567.555" x2="1040.706" y2="567.555" style="stroke:#181818;stroke-width:1;"/><text x="673.351" y="562.489" fill="#000" font-size="13" textLength="117">サービスの転送先へ</text><line x1="496.351" y1="576.555" x2="1062.706" y2="576.555" style="stroke:#000;stroke-width:1;stroke-dasharray:2,2;"/><text x="501.351" y="588.765" fill="#000" font-size="11" textLength="24.718" font-weight="700">[L4]</text><polygon points="806.622,611.492,816.622,615.492,806.622,619.492,810.622,615.492" fill="#181818" style="stroke:#181818;stroke-width:1;stroke-linejoin:miter;stroke-miterlimit:10;"/><line x1="512.351" y1="615.492" x2="812.622" y2="615.492" style="stroke:#181818;stroke-width:1;"/><text x="519.351" y="610.426" fill="#000" font-size="13" textLength="26">宛先</text><polygon points="1034.706,640.625,1044.706,644.625,1034.706,648.625,1038.706,644.625" fill="#181818" style="stroke:#181818;stroke-width:1;stroke-linejoin:miter;stroke-miterlimit:10;"/><line x1="818.622" y1="644.625" x2="1040.706" y2="644.625" style="stroke:#181818;stroke-width:1;"/><text x="825.622" y="639.559" fill="#000" font-size="13" textLength="204.083">接続（PROXY ヘッダ・再暗号化）</text><polygon points="70,697.758,60,701.758,70,705.758,66,701.758" fill="#181818" style="stroke:#181818;stroke-width:1;stroke-linejoin:miter;stroke-miterlimit:10;"/><polygon points="1034.706,697.758,1044.706,701.758,1034.706,705.758,1038.706,701.758" fill="#181818" style="stroke:#181818;stroke-width:1;stroke-linejoin:miter;stroke-miterlimit:10;"/><line x1="64" y1="701.758" x2="1040.706" y2="701.758" style="stroke:#181818;stroke-width:1;"/><text x="76" y="696.692" fill="#000" font-size="13" textLength="240.995">中継（統計・conn.open / conn.close）</text><?plantuml-src RLB1RjD04BtxArOzmQ7f1Ga98Gvn3Zb4eafy00a96MTBB3bhozxIQ-qLgGDDYTAgb5O2gO8q43KLGYb1pTSms4vF_GLcxP3K4eT4wzdtthnvEzpa5YMQkax07yLxNvBBOtaO-n3iAexkSjCm7PrniWB11OYl47o6u1J43n3X2j4zekPHt70AhfVUQFcRwYRZPfC-OtTqoxAtdc-uTXF4bUhQM_KQDUwcd6gUerLgYEUMPzXiWwmHZvaPhfR7LUuZhC6vi-PHznLrqKA6A-TnqUWaUXtYWDV-97xp4KalT4jd1bqGYdd2xEhqUjj7JdfPKXILh3uY6db0igmKJNvNyNiv5Feqv50UDHJTuYH-sukwVOKWR7LEhbDcqZgMjBIaOYaAT-B3yvjfY3FBjuZQdPjfMw6idlMe8GQ3A3JjEarb7TtpUCErDrysicJm_tODDGYUECKsDQbGH0K8nY2c8BfHjmF-MPO70eeIK5gCXJPKowICbocEXL87u0_aKlWVKbEMHmcdRjDa-b9VEfmDfl7HNdmoWQ276KEmZrsISP0CBn0cRSjNajv035CdGwpF1ShIeFWc5oqOGF0BLoph3FumskadtLQABV_3DdLkDCZlLWzPdq2qfMJGX-0CDtI9BDqQUr-g-gF5gu8_GM0wJkNUqeXCQX7D_y9Phpv-yXIx7e4G8BPnZQDM9pv-7xtx6UqUoeXG5LzE_ahauVo9_qpEaqiCC4p6tsU345curgnWEvJ9dP5dmx8zYlo_?></g></svg>