<?plantuml 1.2026.1?><svg xmlns="http://www.w3.org/2000/svg" xmlns:xlink="http://www.w3.org/1999/xlink" contentStyleType="text/css" data-diagram-type="DESCRIPTION" height="992px" preserveAspectRatio="none" style="width:1754px;height:992px;background:#FFFFFF;" version="1.1" viewBox="0 0 1754 992" width="1754px" zoomAndPan="magnify"><title>rproxy-api&#65306;&#12514;&#12472;&#12517;&#12540;&#12523;&#12398;&#27083;&#25104;</title><defs/><g><g class="title" data-source-line="2"><text fill="#000000" font-family="sans-serif" font-size="14" font-weight="bold" lengthAdjust="spacing" textLength="207.6821" x="740.159" y="22.9951">rproxy-api&#65306;&#12514;&#12472;&#12517;&#12540;&#12523;&#12398;&#27083;&#25104;</text></g><!--cluster ???????--><g class="cluster" data-qualified-name="......." data-source-line="5" id="ent0002"><path d="M135.5,41.2969 L234.4996,41.2969 A3.75,3.75 0 0 1 236.9996,43.7969 L243.9996,63.5938 L340.5,63.5938 A2.5,2.5 0 0 1 343,66.0938 L343,142.7969 A2.5,2.5 0 0 1 340.5,145.2969 L135.5,145.2969 A2.5,2.5 0 0 1 133,142.7969 L133,43.7969 A2.5,2.5 0 0 1 135.5,41.2969" fill="none" style="stroke:#000000;stroke-width:1.5;"/><line style="stroke:#000000;stroke-width:1.5;" x1="133" x2="243.9996" y1="63.5938" y2="63.5938"/><text fill="#000000" font-family="sans-serif" font-size="14" font-weight="bold" lengthAdjust="spacing" textLength="97.9996" x="137" y="56.292">&#36215;&#21205;&#12539;&#23450;&#26399;&#20966;&#29702;</text></g><!--cluster ??????--><g class="cluster" data-qualified-name="......" data-source-line="8" id="ent0004"><path d="M66.5,164.2969 L151.4996,164.2969 A3.75,3.75 0 0 1 153.9996,166.7969 L160.9996,186.5938 L417.5,186.5938 A2.5,2.5 0 0 1 420,189.0938 L420,446.7969 A2.5,2.5 0 0 1 417.5,449.2969 L66.5,449.2969 A2.5,2.5 0 0 1 64,446.7969 L64,166.7969 A2.5,2.5 0 0 1 66.5,164.2969" fill="none" style="stroke:#000000;stroke-width:1.5;"/><line style="stroke:#000000;stroke-width:1.5;" x1="64" x2="160.9996" y1="186.5938" y2="186.5938"/><text fill="#000000" font-family="sans-serif" font-size="14" font-weight="bold" lengthAdjust="spacing" textLength="83.9996" x="68" y="179.292">&#21046;&#24481;&#12503;&#12524;&#12540;&#12531;</text></g><!--cluster Registry--><g class="cluster" data-qualified-name="Registry" data-source-line="15" id="ent0010"><path d="M430.5,361.2969 L497.6514,361.2969 A3.75,3.75 0 0 1 500.1514,363.7969 L507.1514,383.5938 L619.5,383.5938 A2.5,2.5 0 0 1 622,386.0938 L622,554.7969 A2.5,2.5 0 0 1 619.5,557.2969 L430.5,557.2969 A2.5,2.5 0 0 1 428,554.7969 L428,363.7969 A2.5,2.5 0 0 1 430.5,361.2969" fill="none" style="stroke:#000000;stroke-width:1.5;"/><line style="stroke:#000000;stroke-width:1.5;" x1="428" x2="507.1514" y1="383.5938" y2="383.5938"/><text fill="#000000" font-family="sans-serif" font-size="14" font-weight="bold" lengthAdjust="spacing" textLength="66.1514" x="432" y="376.292">Registry</text></g><!--cluster L4 ???????--><g class="cluster" data-qualified-name="L4 ......." data-source-line="19" id="ent0013"><path d="M104.5,584.7969 L227.0357,584.7969 A3.75,3.75 0 0 1 229.5357,587.2969 L236.5357,607.0938 L851.5,607.0938 A2.5,2.5 0 0 1 854,609.5938 L854,769.7969 A2.5,2.5 0 0 1 851.5,772.2969 L104.5,772.2969 A2.5,2.5 0 0 1 102,769.7969 L102,587.2969 A2.5,2.5 0 0 1 104.5,584.7969" fill="none" style="stroke:#000000;stroke-width:1.5;"/><line style="stroke:#000000;stroke-width:1.5;" x1="102" x2="236.5357" y1="607.0938" y2="607.0938"/><text fill="#000000" font-family="sans-serif" font-size="14" font-weight="bold" lengthAdjust="spacing" textLength="121.5357" x="106" y="599.792">L4 &#12487;&#12540;&#12479;&#12503;&#12524;&#12540;&#12531;</text></g><!--cluster L7 ????????src/l7/?--><g class="cluster" data-qualified-name="L7 ........src.l7.." data-source-line="27" id="ent0020"><path d="M1153.5,576.2969 L1371.1713,576.2969 A3.75,3.75 0 0 1 1373.6713,578.7969 L1380.6713,598.5938 L1744.5,598.5938 A2.5,2.5 0 0 1 1747,601.0938 L1747,982.7969 A2.5,2.5 0 0 1 1744.5,985.2969 L1153.5,985.2969 A2.5,2.5 0 0 1 1151,982.7969 L1151,578.7969 A2.5,2.5 0 0 1 1153.5,576.2969" fill="none" style="stroke:#000000;stroke-width:1.5;"/><line style="stroke:#000000;stroke-width:1.5;" x1="1151" x2="1380.6713" y1="598.5938" y2="598.5938"/><text fill="#000000" font-family="sans-serif" font-size="14" font-weight="bold" lengthAdjust="spacing" textLength="201.7713" x="1155" y="591.292">L7 &#12487;&#12540;&#12479;&#12503;&#12524;&#12540;&#12531;&#65288;src/l7/&#65289;</text></g><!--cluster ??--><g class="cluster" data-qualified-name=".." data-source-line="35" id="ent0027"><path d="M66.5,791.2969 L95.4999,791.2969 A3.75,3.75 0 0 1 97.9999,793.7969 L104.9999,813.5938 L571.5,813.5938 A2.5,2.5 0 0 1 574,816.0938 L574,982.7969 A2.5,2.5 0 0 1 571.5,985.2969 L66.5,985.2969 A2.5,2.5 0 0 1 64,982.7969 L64,793.7969 A2.5,2.5 0 0 1 66.5,791.2969" fill="none" style="stroke:#000000;stroke-width:1.5;"/><line style="stroke:#000000;stroke-width:1.5;" x1="64" x2="104.9999" y1="813.5938" y2="813.5938"/><text fill="#000000" font-family="sans-serif" font-size="14" font-weight="bold" lengthAdjust="spacing" textLength="27.9999" x="68" y="806.292">&#20849;&#36890;</text></g><!--entity main--><g class="entity" data-qualified-name="........main" data-source-line="6" id="ent0003"><rect fill="#F1F1F1" height="68.8906" rx="2.5" ry="2.5" style="stroke:#181818;stroke-width:0.5;" width="192.7161" x="141.5" y="68.2969"/><text fill="#000000" font-family="sans-serif" font-size="14" lengthAdjust="spacing" textLength="52.4795" x="151.5" y="91.292">main.rs</text><text fill="#000000" font-family="sans-serif" font-size="14" lengthAdjust="spacing" textLength="137.0807" x="151.5" y="107.5889">&#36215;&#21205;&#12539;&#32066;&#20102;&#12539;SIGHUP</text><text fill="#000000" font-family="sans-serif" font-size="14" lengthAdjust="spacing" textLength="172.7161" x="151.5" y="123.8857">&#35388;&#26126;&#26360;/&#35373;&#23450;&#12501;&#12449;&#12452;&#12523;&#12398;&#30906;&#35469;</text></g><!--entity api--><g class="entity" data-qualified-name=".......api" data-source-line="9" id="ent0005"><rect fill="#F1F1F1" height="52.5938" rx="2.5" ry="2.5" style="stroke:#181818;stroke-width:0.5;" width="59.375" x="102.5" y="281.2969"/><text fill="#000000" font-family="sans-serif" font-size="14" lengthAdjust="spacing" textLength="38.8555" x="112.5" y="304.292">api.rs</text><text fill="#000000" font-family="sans-serif" font-size="14" lengthAdjust="spacing" textLength="39.375" x="112.5" y="320.5889">axum</text></g><!--entity auth--><g class="entity" data-qualified-name=".......auth" data-source-line="10" id="ent0006"><rect fill="#F1F1F1" height="52.5938" rx="2.5" ry="2.5" style="stroke:#181818;stroke-width:0.5;" width="187.9993" x="72" y="388.2969"/><text fill="#000000" font-family="sans-serif" font-size="14" lengthAdjust="spacing" textLength="49.3145" x="82" y="411.292">auth.rs</text><text fill="#000000" font-family="sans-serif" font-size="14" lengthAdjust="spacing" textLength="167.9993" x="82" y="427.5889">&#12488;&#12540;&#12463;&#12531;&#12539;&#12473;&#12467;&#12540;&#12503;&#12539;&#30435;&#26619;</text></g><!--entity unix--><g class="entity" data-qualified-name=".......unix" data-source-line="11" id="ent0007"><rect fill="#F1F1F1" height="36.2969" rx="2.5" ry="2.5" style="stroke:#181818;stroke-width:0.5;" width="95.7764" x="72" y="199.7969"/><text fill="#000000" font-family="sans-serif" font-size="14" lengthAdjust="spacing" textLength="75.7764" x="82" y="222.792">unix_api.rs</text></g><!--entity config--><g class="entity" data-qualified-name=".......config" data-source-line="12" id="ent0008"><rect fill="#F1F1F1" height="52.5938" rx="2.5" ry="2.5" style="stroke:#181818;stroke-width:0.5;" width="103.9996" x="308" y="191.2969"/><text fill="#000000" font-family="sans-serif" font-size="14" lengthAdjust="spacing" textLength="60.3408" x="318" y="214.292">config.rs</text><text fill="#000000" font-family="sans-serif" font-size="14" lengthAdjust="spacing" textLength="83.9996" x="318" y="230.5889">&#35373;&#23450;&#12501;&#12449;&#12452;&#12523;</text></g><!--entity db--><g class="entity" data-qualified-name=".......db" data-source-line="13" id="ent0009"><rect fill="#F1F1F1" height="52.5938" rx="2.5" ry="2.5" style="stroke:#181818;stroke-width:0.5;" width="103.9996" x="186" y="191.2969"/><text fill="#000000" font-family="sans-serif" font-size="14" lengthAdjust="spacing" textLength="35.2734" x="196" y="214.292">db.rs</text><text fill="#000000" font-family="sans-serif" font-size="14" lengthAdjust="spacing" textLength="83.9996" x="196" y="230.5889">&#36215;&#21205;&#26178;&#12398;&#24489;&#20803;</text></g><!--entity registry--><g class="entity" data-qualified-name="Registry.registry" data-source-line="16" id="ent0011"><rect fill="#F1F1F1" height="52.5938" rx="2.5" ry="2.5" style="stroke:#181818;stroke-width:0.5;" width="159.9994" x="436" y="388.2969"/><text fill="#000000" font-family="sans-serif" font-size="14" lengthAdjust="spacing" textLength="71.4697" x="446" y="411.292">registry.rs</text><text fill="#000000" font-family="sans-serif" font-size="14" lengthAdjust="spacing" textLength="139.9994" x="446" y="427.5889">&#12523;&#12540;&#12523;&#12398;&#21807;&#19968;&#12398;&#25345;&#12385;&#20027;</text></g><!--entity runtime--><g class="entity" data-qualified-name="Registry.runtime" data-source-line="17" id="ent0012"><rect fill="#F1F1F1" height="52.5938" rx="2.5" ry="2.5" style="stroke:#181818;stroke-width:0.5;" width="177.1031" x="436.5" y="496.2969"/><text fill="#000000" font-family="sans-serif" font-size="14" lengthAdjust="spacing" textLength="57.2783" x="446.5" y="519.292">proxy.rs</text><text fill="#000000" font-family="sans-serif" font-size="14" lengthAdjust="spacing" textLength="157.1031" x="446.5" y="535.5889">Runtime&#65288;&#12523;&#12540;&#12523;&#12372;&#12392;&#65289;</text></g><!--entity tcp--><g class="entity" data-qualified-name="L4 ........tcp" data-source-line="20" id="ent0014"><rect fill="#F1F1F1" height="36.2969" rx="2.5" ry="2.5" style="stroke:#181818;stroke-width:0.5;" width="59.5732" x="495" y="611.7969"/><text fill="#000000" font-family="sans-serif" font-size="14" lengthAdjust="spacing" textLength="39.5732" x="505" y="634.792">tcp.rs</text></g><!--entity udp--><g class="entity" data-qualified-name="L4 ........udp" data-source-line="21" id="ent0015"><rect fill="#F1F1F1" height="36.2969" rx="2.5" ry="2.5" style="stroke:#181818;stroke-width:0.5;" width="64.1465" x="405" y="611.7969"/><text fill="#000000" font-family="sans-serif" font-size="14" lengthAdjust="spacing" textLength="44.1465" x="415" y="634.792">udp.rs</text></g><!--entity listen--><g class="entity" data-qualified-name="L4 ........listen" data-source-line="22" id="ent0016"><rect fill="#F1F1F1" height="52.5938" rx="2.5" ry="2.5" style="stroke:#181818;stroke-width:0.5;" width="75.9998" x="544" y="711.2969"/><text fill="#000000" font-family="sans-serif" font-size="14" lengthAdjust="spacing" textLength="55.5488" x="554" y="734.292">listen.rs</text><text fill="#000000" font-family="sans-serif" font-size="14" lengthAdjust="spacing" textLength="55.9998" x="554" y="750.5889">&#24453;&#12385;&#21463;&#12369;</text></g><!--entity balance--><g class="entity" data-qualified-name="L4 ........balance" data-source-line="23" id="ent0017"><rect fill="#F1F1F1" height="52.5938" rx="2.5" ry="2.5" style="stroke:#181818;stroke-width:0.5;" width="201.9992" x="110" y="711.2969"/><text fill="#000000" font-family="sans-serif" font-size="14" lengthAdjust="spacing" textLength="72.6182" x="120" y="734.292">balance.rs</text><text fill="#000000" font-family="sans-serif" font-size="14" lengthAdjust="spacing" textLength="181.9992" x="120" y="750.5889">&#35079;&#25968;&#12398;&#23451;&#20808;&#12539;&#12504;&#12523;&#12473;&#12481;&#12455;&#12483;&#12463;</text></g><!--entity source--><g class="entity" data-qualified-name="L4 ........source" data-source-line="24" id="ent0018"><rect fill="#F1F1F1" height="52.5938" rx="2.5" ry="2.5" style="stroke:#181818;stroke-width:0.5;" width="207.0722" x="638.5" y="711.2969"/><text fill="#000000" font-family="sans-serif" font-size="14" lengthAdjust="spacing" textLength="64.2988" x="648.5" y="734.292">source.rs</text><text fill="#000000" font-family="sans-serif" font-size="14" lengthAdjust="spacing" textLength="187.0722" x="648.5" y="750.5889">PROXY v1/v2&#12539;transparent</text></g><!--entity l4tls--><g class="entity" data-qualified-name="L4 ........l4tls" data-source-line="25" id="ent0019"><rect fill="#F1F1F1" height="36.2969" rx="2.5" ry="2.5" style="stroke:#181818;stroke-width:0.5;" width="194.6309" x="330.5" y="719.7969"/><text fill="#000000" font-family="sans-serif" font-size="14" lengthAdjust="spacing" textLength="174.6309" x="340.5" y="742.792">sni.rs / starttls.rs / dtls.rs</text></g><!--entity server--><g class="entity" data-qualified-name="L7 ........src.l7...server" data-source-line="28" id="ent0021"><rect fill="#F1F1F1" height="52.5938" rx="2.5" ry="2.5" style="stroke:#181818;stroke-width:0.5;" width="105.9619" x="1159" y="711.2969"/><text fill="#000000" font-family="sans-serif" font-size="14" lengthAdjust="spacing" textLength="61.8174" x="1169" y="734.292">server.rs</text><text fill="#000000" font-family="sans-serif" font-size="14" lengthAdjust="spacing" textLength="85.9619" x="1169" y="750.5889">HTTP/1.1&#12539;2</text></g><!--entity h3--><g class="entity" data-qualified-name="L7 ........src.l7...h3" data-source-line="29" id="ent0022"><rect fill="#F1F1F1" height="52.5938" rx="2.5" ry="2.5" style="stroke:#181818;stroke-width:0.5;" width="69.6973" x="1177" y="603.2969"/><text fill="#000000" font-family="sans-serif" font-size="14" lengthAdjust="spacing" textLength="35.2803" x="1187" y="626.292">h3.rs</text><text fill="#000000" font-family="sans-serif" font-size="14" lengthAdjust="spacing" textLength="49.6973" x="1187" y="642.5889">HTTP/3</text></g><!--entity matcher--><g class="entity" data-qualified-name="L7 ........src.l7...matcher" data-source-line="30" id="ent0023"><rect fill="#F1F1F1" height="52.5938" rx="2.5" ry="2.5" style="stroke:#181818;stroke-width:0.5;" width="96.1455" x="1159" y="826.2969"/><text fill="#000000" font-family="sans-serif" font-size="14" lengthAdjust="spacing" textLength="76.1455" x="1169" y="849.292">matcher.rs</text><text fill="#000000" font-family="sans-serif" font-size="14" lengthAdjust="spacing" textLength="62.7265" x="1169" y="865.5889">match &#24335;</text></g><!--entity mw--><g class="entity" data-qualified-name="L7 ........src.l7...mw" data-source-line="31" id="ent0024"><rect fill="#F1F1F1" height="68.8906" rx="2.5" ry="2.5" style="stroke:#181818;stroke-width:0.5;" width="218.4609" x="1273" y="818.2969"/><text fill="#000000" font-family="sans-serif" font-size="14" lengthAdjust="spacing" textLength="88.0021" x="1283" y="841.292">middleware/</text><text fill="#000000" font-family="sans-serif" font-size="14" lengthAdjust="spacing" textLength="198.4609" x="1283" y="857.5889">limit / crowdsec / auth / oidc</text><text fill="#000000" font-family="sans-serif" font-size="14" lengthAdjust="spacing" textLength="148.4902" x="1283" y="873.8857">compress / resilience</text></g><!--entity backend--><g class="entity" data-qualified-name="L7 ........src.l7...backend" data-source-line="32" id="ent0025"><rect fill="#F1F1F1" height="52.5938" rx="2.5" ry="2.5" style="stroke:#181818;stroke-width:0.5;" width="145.9995" x="1309" y="924.2969"/><text fill="#000000" font-family="sans-serif" font-size="14" lengthAdjust="spacing" textLength="77.1436" x="1319" y="947.292">backend.rs</text><text fill="#000000" font-family="sans-serif" font-size="14" lengthAdjust="spacing" textLength="125.9995" x="1319" y="963.5889">&#12469;&#12540;&#12499;&#12473;&#12539;&#36000;&#33655;&#20998;&#25955;</text></g><!--entity access--><g class="entity" data-qualified-name="L7 ........src.l7...access" data-source-line="33" id="ent0026"><rect fill="#F1F1F1" height="52.5938" rx="2.5" ry="2.5" style="stroke:#181818;stroke-width:0.5;" width="229.9991" x="1509" y="826.2969"/><text fill="#000000" font-family="sans-serif" font-size="14" lengthAdjust="spacing" textLength="64.6748" x="1519" y="849.292">access.rs</text><text fill="#000000" font-family="sans-serif" font-size="14" lengthAdjust="spacing" textLength="209.9991" x="1519" y="865.5889">&#20449;&#38972;&#12377;&#12427;&#12503;&#12525;&#12461;&#12471;&#12539;&#12450;&#12463;&#12475;&#12473;&#12525;&#12464;</text></g><!--entity store--><g class="entity" data-qualified-name="...acme" data-source-line="37" id="ent0099"><rect fill="#F1F1F1" height="52.5938" rx="2.5" ry="2.5" style="stroke:#181818;stroke-width:0.5;" width="230" x="330" y="924.2969"/><text fill="#000000" font-family="sans-serif" font-size="14" lengthAdjust="spacing" textLength="40" x="340" y="947.292">acme/</text><text fill="#000000" font-family="sans-serif" font-size="14" lengthAdjust="spacing" textLength="190" x="340" y="963.5889">ACME&#65306;&#21462;&#24471;&#12539;&#26356;&#26032;&#12539;challenge</text></g><g class="link" data-entity-1="ent0099" data-entity-2="ent0028" data-link-type="dependency" id="lnk99"><polygon fill="#181818" points="420,887.6875,416,896.6875,420,893.6875,424,896.6875,420,887.6875" style="stroke:#181818;stroke-width:1;"/><path d="M420,924.2969 L420,893.6875" fill="none" style="stroke:#181818;stroke-width:1;"/></g><g class="entity" data-qualified-name="...store" data-source-line="36" id="ent0028"><rect fill="#F1F1F1" height="68.8906" rx="2.5" ry="2.5" style="stroke:#181818;stroke-width:0.5;" width="303.8065" x="154" y="818.2969"/><text fill="#000000" font-family="sans-serif" font-size="14" lengthAdjust="spacing" textLength="80.7734" x="164" y="841.292">certstore.rs</text><text fill="#000000" font-family="sans-serif" font-size="14" lengthAdjust="spacing" textLength="83.9996" x="164" y="857.5889">&#35388;&#26126;&#26360;&#12473;&#12488;&#12450;</text><text fill="#000000" font-family="sans-serif" font-size="14" lengthAdjust="spacing" textLength="283.8065" x="164" y="873.8857">&#35501;&#12415;&#36796;&#12415;&#12539;&#22793;&#21270;&#12539;&#26399;&#38480;&#65288;&#35388;&#26126;&#26360;&#12372;&#12392;&#12395; 1 &#22238;&#65289;</text></g><!--entity tls--><g class="entity" data-qualified-name="...tls" data-source-line="37" id="ent0029"><rect fill="#F1F1F1" height="52.5938" rx="2.5" ry="2.5" style="stroke:#181818;stroke-width:0.5;" width="189.6879" x="107" y="924.2969"/><text fill="#000000" font-family="sans-serif" font-size="14" lengthAdjust="spacing" textLength="79.0373" x="117" y="947.292">tls/config.rs</text><text fill="#000000" font-family="sans-serif" font-size="14" lengthAdjust="spacing" textLength="169.6879" x="117" y="963.5889">TLS &#12398;&#35373;&#23450;&#12539;&#35388;&#26126;&#26360;&#12398;&#26908;&#26619;</text></g><!--entity resolve--><g class="entity" data-qualified-name="...resolve" data-source-line="38" id="ent0030"><rect fill="#F1F1F1" height="52.5938" rx="2.5" ry="2.5" style="stroke:#181818;stroke-width:0.5;" width="88.5166" x="476.5" y="826.2969"/><text fill="#000000" font-family="sans-serif" font-size="14" lengthAdjust="spacing" textLength="68.5166" x="486.5" y="849.292">resolve.rs</text><text fill="#000000" font-family="sans-serif" font-size="14" lengthAdjust="spacing" textLength="55.9998" x="486.5" y="865.5889">&#21517;&#21069;&#35299;&#27770;</text></g><!--entity cidr--><g class="entity" data-qualified-name="...cidr" data-source-line="39" id="ent0031"><rect fill="#F1F1F1" height="36.2969" rx="2.5" ry="2.5" style="stroke:#181818;stroke-width:0.5;" width="63.7295" x="72" y="834.7969"/><text fill="#000000" font-family="sans-serif" font-size="14" lengthAdjust="spacing" textLength="43.7295" x="82" y="857.792">cidr.rs</text></g><g class="link" data-entity-1="ent0003" data-entity-2="ent0005" data-link-type="dependency" id="lnk32"><polygon fill="#181818" points="102.3636,288.6957,97.4679,280.1498,98.3303,285.7406,92.7396,286.603,102.3636,288.6957" style="stroke:#181818;stroke-width:1;"/><path d="M141.1892,115.1651 C111.2076,123.7584 81.2782,138.6381 63,164.2969 C42.3707,193.256 48.5865,211.7938 63,244.2969 C71.1246,262.6182 82.7273,274.3082 97.5237,285.1495" fill="none" style="stroke:#181818;stroke-width:1;"/></g><g class="link" data-entity-1="ent0003" data-entity-2="ent0008" data-link-type="dependency" id="lnk33"><polygon fill="#181818" points="332.1971,191.045,328.3123,181.9946,328.5288,187.6473,322.8761,187.8638,332.1971,191.045" style="stroke:#181818;stroke-width:1;"/><path d="M274.2737,137.3947 C292.8168,154.5698 310.6274,171.0665 327.7952,186.9678" fill="none" style="stroke:#181818;stroke-width:1;"/></g><g class="link" data-entity-1="ent0003" data-entity-2="ent0009" data-link-type="dependency" id="lnk34"><polygon fill="#181818" points="238,191.045,242,182.045,238,186.045,234,182.045,238,191.045" style="stroke:#181818;stroke-width:1;"/><path d="M238,137.3947 C238,154.5698 238,169.1437 238,185.045" fill="none" style="stroke:#181818;stroke-width:1;"/></g><g class="link" data-entity-1="ent0003" data-entity-2="ent0011" data-link-type="dependency" id="lnk35"><polygon fill="#181818" points="513.8268,388.2954,516.7966,378.905,513.2684,383.3267,508.8466,379.7985,513.8268,388.2954" style="stroke:#181818;stroke-width:1;"/><path d="M334.7276,117.8546 C366.4667,126.6633 399.7723,140.9913 424,164.2969 C488.714,226.5478 507.5293,332.2664 513.1567,382.333" fill="none" style="stroke:#181818;stroke-width:1;"/></g><g class="link" data-entity-1="ent0005" data-entity-2="ent0006" data-link-type="dependency" id="lnk36"><polygon fill="#181818" points="157.6507,388.0122,158.6836,378.2177,156.1104,383.2554,151.0727,380.6822,157.6507,388.0122" style="stroke:#181818;stroke-width:1;"/><path d="M140.3173,334.4828 C145.5861,350.7539 150.5274,366.014 155.8023,382.304" fill="none" style="stroke:#181818;stroke-width:1;"/></g><g class="link" data-entity-1="ent0007" data-entity-2="ent0005" data-link-type="dependency" id="lnk37"><polygon fill="#181818" points="128.4968,281.1071,131.2441,271.6491,127.8213,276.1529,123.3175,272.73,128.4968,281.1071" style="stroke:#181818;stroke-width:1;"/><path d="M122.3708,236.1828 C124.1194,249.0058 125.716,260.7143 127.6862,275.1621" fill="none" style="stroke:#181818;stroke-width:1;"/></g><g class="link" data-entity-1="ent0005" data-entity-2="ent0011" data-link-type="dependency" id="lnk38"><polygon fill="#181818" points="480.1542,388.2414,474.6625,380.0658,475.9208,385.5809,470.4057,386.8393,480.1542,388.2414" style="stroke:#181818;stroke-width:1;"/><path d="M161.7417,318.9642 C193.9248,329.4926 246.9582,345.4749 294,353.2969 C351.1031,362.7918 368.5302,344.7433 424,361.2969 C443.7366,367.1867 458.7329,374.7792 475.0741,385.0488" fill="none" style="stroke:#181818;stroke-width:1;"/></g><g class="link" data-entity-1="ent0008" data-entity-2="ent0011" data-link-type="dependency" id="lnk39"><polygon fill="#181818" points="493.4343,388.1382,490.5617,378.7176,490.1592,384.3601,484.5167,383.9577,493.4343,388.1382" style="stroke:#181818;stroke-width:1;"/><path d="M379.1651,244.3886 C399.7454,271.6778 433.594,316.0099 464,353.2969 C473.4531,364.8892 480.2549,372.9345 489.5042,383.6045" fill="none" style="stroke:#181818;stroke-width:1;"/></g><g class="link" data-entity-1="ent0009" data-entity-2="ent0011" data-link-type="dependency" id="lnk40"><polygon fill="#181818" points="479.2894,388.0466,474.2183,379.6036,475.196,385.1753,469.6243,386.153,479.2894,388.0466" style="stroke:#181818;stroke-width:1;"/><path d="M274.6295,244.4902 C327.8552,281.8248 421.106,347.2346 474.3773,384.6011" fill="none" style="stroke:#181818;stroke-width:1;"/></g><g class="link" data-entity-1="ent0011" data-entity-2="ent0012" data-link-type="dependency" id="lnk41"><polygon fill="#181818" points="522.8102,496.0061,526.0345,486.7,522.3872,491.0241,518.0631,487.3768,522.8102,496.0061" style="stroke:#181818;stroke-width:1;"/><path d="M518.1786,441.4565 C519.5833,457.9998 520.8958,473.4586 522.3026,490.0276" fill="none" style="stroke:#181818;stroke-width:1;"/></g><g class="link" data-entity-1="ent0012" data-entity-2="ent0014" data-link-type="dependency" id="lnk42"><polygon fill="#181818" points="525,611.5804,529,602.5804,525,606.5804,521,602.5804,525,611.5804" style="stroke:#181818;stroke-width:1;"/><path d="M525,549.4828 C525,568.7895 525,588.7097 525,605.5804" fill="none" style="stroke:#181818;stroke-width:1;"/></g><g class="link" data-entity-1="ent0012" data-entity-2="ent0015" data-link-type="dependency" id="lnk43"><polygon fill="#181818" points="451.429,611.5804,460.2757,607.252,454.6407,607.7483,454.1444,602.1133,451.429,611.5804" style="stroke:#181818;stroke-width:1;"/><path d="M503.4728,549.4828 C487.2919,568.7895 469.4223,590.1111 455.283,606.9819" fill="none" style="stroke:#181818;stroke-width:1;"/></g><g class="link" data-entity-1="ent0012" data-entity-2="ent0021" data-link-type="dependency" id="lnk44"><polygon fill="#181818" points="1158.9207,736.5726,1150.1049,732.1816,1153.9256,736.3532,1149.7539,740.1739,1158.9207,736.5726" style="stroke:#181818;stroke-width:1;"/><path d="M613.7435,528.5248 C699.0394,534.6814 820.3797,548.1781 858,576.2969 C889.529,599.8628 865.6014,631.2897 896,656.2969 C972.0738,718.8782 1084.7247,733.3138 1152.9265,736.3094" fill="none" style="stroke:#181818;stroke-width:1;"/></g><g class="link" data-entity-1="ent0014" data-entity-2="ent0016" data-link-type="dependency" id="lnk45"><polygon fill="#181818" points="568.1814,711.0992,567.4419,701.2781,565.8134,706.6955,560.396,705.067,568.1814,711.0992" style="stroke:#181818;stroke-width:1;"/><path d="M534.158,647.8276 C543.3472,664.9163 554.7743,686.1666 565.3398,705.8148" fill="none" style="stroke:#181818;stroke-width:1;"/></g><g class="link" data-entity-1="ent0015" data-entity-2="ent0016" data-link-type="dependency" id="lnk46"><polygon fill="#181818" points="546.8475,711.0992,541.9425,702.5586,542.8111,708.1484,537.2213,709.0169,546.8475,711.0992" style="stroke:#181818;stroke-width:1;"/><path d="M460.2968,647.8276 C483.6728,664.9163 515.1266,687.9101 542.0038,707.5583" fill="none" style="stroke:#181818;stroke-width:1;"/></g><g class="link" data-entity-1="ent0014" data-entity-2="ent0017" data-link-type="dependency" id="lnk47"><polygon fill="#181818" points="312.2311,711.531,321.9703,712.9967,317.0515,710.2029,319.8453,705.2841,312.2311,711.531" style="stroke:#181818;stroke-width:1;"/><path d="M495.6138,647.9252 C489.874,650.9301 483.8266,653.8679 478,656.2969 C424.5983,678.5587 368.6574,695.9842 318.0156,709.9373" fill="none" style="stroke:#181818;stroke-width:1;"/></g><g class="link" data-entity-1="ent0015" data-entity-2="ent0017" data-link-type="dependency" id="lnk48"><polygon fill="#181818" points="265.5755,711.1995,275.4223,710.9992,270.1023,709.0763,272.0252,703.7563,265.5755,711.1995" style="stroke:#181818;stroke-width:1;"/><path d="M404.6197,645.9841 C368.37,662.9861 314.4566,688.273 271.0076,708.6517" fill="none" style="stroke:#181818;stroke-width:1;"/></g><g class="link" data-entity-1="ent0014" data-entity-2="ent0018" data-link-type="dependency" id="lnk49"><polygon fill="#181818" points="689.5568,711.1795,683.2257,703.6351,685.0642,708.9849,679.7144,710.8234,689.5568,711.1795" style="stroke:#181818;stroke-width:1;"/><path d="M555.1729,645.5357 C589.8769,662.4879 642.0817,687.9889 684.1657,708.546" fill="none" style="stroke:#181818;stroke-width:1;"/></g><g class="link" data-entity-1="ent0014" data-entity-2="ent0019" data-link-type="dependency" id="lnk50"><polygon fill="#181818" points="443.9771,719.4545,453.015,715.5408,447.363,715.7754,447.1284,710.1234,443.9771,719.4545" style="stroke:#181818;stroke-width:1;"/><path d="M509.293,648.0577 C497.8557,660.617 481.9845,678.026 468,693.2969 C460.101,701.9225 455.368,707.0772 448.0402,715.0395" fill="none" style="stroke:#181818;stroke-width:1;"/></g><g class="link" data-entity-1="ent0015" data-entity-2="ent0019" data-link-type="dependency" id="lnk51"><polygon fill="#181818" points="429.4723,719.4563,434.2194,710.8269,429.8953,714.4742,426.2481,710.1501,429.4723,719.4563" style="stroke:#181818;stroke-width:1;"/><path d="M435.554,647.8276 C433.8844,667.4913 431.6605,693.6838 429.9799,713.4778" fill="none" style="stroke:#181818;stroke-width:1;"/></g><g class="link" data-entity-1="ent0014" data-entity-2="ent0021" data-link-type="dependency" id="lnk52"><polygon fill="#181818" points="1158.9202,733.2421,1150.2343,728.5993,1153.9334,732.8791,1149.6535,736.5782,1158.9202,733.2421" style="stroke:#181818;stroke-width:1;"/><path d="M555.175,638.9248 C605.3982,652.1712 709.4748,678.4263 799,693.2969 C927.3779,714.6211 1074.0556,727.0646 1152.936,732.8065" fill="none" style="stroke:#181818;stroke-width:1;"/><text fill="#000000" font-family="sans-serif" font-size="13" lengthAdjust="spacing" textLength="82.8179" x="801" y="688.3638">http &#12398;&#12523;&#12540;&#12523;</text></g><g class="link" data-entity-1="ent0021" data-entity-2="ent0023" data-link-type="dependency" id="lnk53"><polygon fill="#181818" points="1208.1301,826.2569,1212.524,817.4425,1208.3511,821.2618,1204.5318,817.0889,1208.1301,826.2569" style="stroke:#181818;stroke-width:1;"/><path d="M1210.8654,764.4383 C1210.0471,782.9315 1209.2126,801.793 1208.3953,820.2628" fill="none" style="stroke:#181818;stroke-width:1;"/></g><g class="link" data-entity-1="ent0022" data-entity-2="ent0021" data-link-type="dependency" id="lnk54"><polygon fill="#181818" points="1212,711.0061,1216,702.0061,1212,706.0061,1208,702.0061,1212,711.0061" style="stroke:#181818;stroke-width:1;"/><path d="M1212,656.4565 C1212,672.9998 1212,688.4371 1212,705.0061" fill="none" style="stroke:#181818;stroke-width:1;"/><text fill="#000000" font-family="sans-serif" font-size="13" lengthAdjust="spacing" textLength="78.0001" x="1214" y="688.3638">&#21516;&#12376;&#12495;&#12531;&#12489;&#12521;</text></g><g class="link" data-entity-1="ent0021" data-entity-2="ent0024" data-link-type="dependency" id="lnk55"><polygon fill="#181818" points="1331.3181,818.1083,1326.0372,809.795,1327.1541,815.3405,1321.6086,816.4574,1331.3181,818.1083" style="stroke:#181818;stroke-width:1;"/><path d="M1250.5756,764.4383 C1274.4786,780.3268 1300.4503,797.5903 1326.3213,814.7869" fill="none" style="stroke:#181818;stroke-width:1;"/></g><g class="link" data-entity-1="ent0024" data-entity-2="ent0025" data-link-type="dependency" id="lnk56"><polygon fill="#181818" points="1382,924.2597,1386,915.2597,1382,919.2597,1378,915.2597,1382,924.2597" style="stroke:#181818;stroke-width:1;"/><path d="M1382,887.373 C1382,899.4846 1382,906.9469 1382,918.2597" fill="none" style="stroke:#181818;stroke-width:1;"/></g><g class="link" data-entity-1="ent0021" data-entity-2="ent0026" data-link-type="dependency" id="lnk57"><polygon fill="#181818" points="1579.0302,826.1512,1572.9404,818.4108,1574.609,823.8159,1569.2039,825.4846,1579.0302,826.1512" style="stroke:#181818;stroke-width:1;"/><path d="M1265.0976,744.0693 C1323.7127,750.8964 1420.3218,765.147 1500,791.2969 C1527.1971,800.2228 1550.7173,811.1961 1573.7248,823.3488" fill="none" style="stroke:#181818;stroke-width:1;"/></g><g class="link" data-entity-1="ent0011" data-entity-2="ent0028" data-link-type="dependency" id="lnk58"><polygon fill="#181818" points="380.726,818.1999,390.5657,818.6243,385.3783,816.368,387.6346,811.1806,380.726,818.1999" style="stroke:#181818;stroke-width:1;"/><path d="M596.2892,428.3062 C678.0717,445.79 800.7565,486.1988 858,576.2969 C904.7146,649.823 918.0834,709.2229 858,772.2969 C827.9996,803.7905 509.5938,782.485 467,791.2969 C438.0519,797.2857 412.9983,805.4921 386.3087,816.0016" fill="none" style="stroke:#181818;stroke-width:1;"/><text fill="#000000" font-family="sans-serif" font-size="13" lengthAdjust="spacing" textLength="221.0003" x="897" y="634.3638">&#22793;&#12431;&#12387;&#12383;&#35388;&#26126;&#26360;&#12398;&#12523;&#12540;&#12523;&#12384;&#12369;&#32068;&#12415;&#30452;&#12377;</text></g><g class="link" data-entity-1="ent0028" data-entity-2="ent0029" data-link-type="dependency" id="lnk59"><polygon fill="#181818" points="229.6652,924.2597,238.9916,921.0944,233.3393,920.8683,233.5653,915.216,229.6652,924.2597" style="stroke:#181818;stroke-width:1;"/><path d="M269.6258,887.373 C256.505,899.4846 246.3297,908.8772 234.0741,920.1901" fill="none" style="stroke:#181818;stroke-width:1;"/></g><g class="link" data-entity-1="ent0012" data-entity-2="ent0029" data-link-type="dependency" id="lnk60"><polygon fill="#181818" points="106.8998,926.3855,100.2114,919.156,102.3063,924.4107,97.0516,926.5055,106.8998,926.3855" style="stroke:#181818;stroke-width:1;"/><path d="M436.4971,525.2349 C297.5754,529.923 44,549.36 44,628.7969 C44,628.7969 44,628.7969 44,853.7969 C44,889.264 67.9254,909.6293 101.3876,924.0157" fill="none" style="stroke:#181818;stroke-width:1;"/></g><g class="link" data-entity-1="ent0003" data-entity-2="ent0028" data-link-type="dependency" id="lnk61"><polygon fill="#181818" points="217.1533,818.281,210.1523,811.3539,212.4771,816.5109,207.3201,818.8358,217.1533,818.281" style="stroke:#181818;stroke-width:1;"/><path d="M141.2911,113.1533 C77.6329,125.2716 6,153.0669 6,216.7969 C6,216.7969 6,216.7969 6,684.7969 C6,741.226 50.2714,742.1932 98,772.2969 C100.8407,774.0886 156.3067,795.2482 211.5419,816.1569" fill="none" style="stroke:#181818;stroke-width:1;"/><text fill="#000000" font-family="sans-serif" font-size="13" lengthAdjust="spacing" textLength="197.9392" x="8" y="473.3638">&#12501;&#12449;&#12452;&#12523;&#12398;&#22793;&#21270;&#12539;1 &#26085; 1 &#22238;&#12398;&#26399;&#38480;</text></g><g class="link" data-entity-1="ent0017" data-entity-2="ent0030" data-link-type="dependency" id="lnk62"><polygon fill="#181818" points="504.5879,826.0129,502.3942,816.4115,501.5906,822.011,495.9911,821.2073,504.5879,826.0129" style="stroke:#181818;stroke-width:1;"/><path d="M289.2978,764.374 C299.8827,767.3218 310.6575,770.0652 321,772.2969 C384.964,786.0986 409.1335,760.7462 467,791.2969 C482.1893,799.3161 491.5684,808.6299 500.9911,821.2106" fill="none" style="stroke:#181818;stroke-width:1;"/></g><g class="link" data-entity-1="ent0014" data-entity-2="ent0031" data-link-type="dependency" id="lnk63"><polygon fill="#181818" points="97.1271,834.6677,97.8578,824.846,95.4409,829.9606,90.3264,827.5438,97.1271,834.6677" style="stroke:#181818;stroke-width:1;"/><path d="M497.3956,647.8501 C491.1961,651.0844 484.5188,654.1295 478,656.2969 C397.6597,683.0089 156.3774,647.2544 101,711.2969 C70.9986,745.9927 84.6564,799.8531 95.1037,829.0191" fill="none" style="stroke:#181818;stroke-width:1;"/></g><?plantuml-src RLLVJzjM57_tfxZhEuqebIRjOQ_hf4f3mAHDwpGPsqqi72UoRmXecbJR0n818rFBAAGQ_z91ow3jEWQ323xCnKvuuYlid7ElZTDLYkHx_jvppltzJZwfUdgnh3D7dwtKEFFB5jTTNUCsTopcLRtApEoGNhLlkXiYsX7XgOXUYgWheWCH72LxYqcZfVbJjblLFRtCZ4gvMd4jbu_pMGot34XMT2nDg-h6b5wqs9t-yKcyk2gYy_Xe8tcn6I_yqMlDts4_QenzLzPjzwxdFt8pfzvnU7Ks3uVnBxzuyFKeMFQxoVDValPfeRz_22b4j2h2RH5sP4MzdRF-w-NlcUupJARzT7jntFWdljWMqPg8_gGEtgjReJkwL9-fbIaI5AIlyH8PHDJ0WF0Dn40f8lnNXEyfnHgMsDvDDizb84HWPCsrPtwGQKcFCkgDYllOBieE_rSzUKeFz3KdSvD8raDeBhvu5Sz5v6TEvbiRiugspxrPrP2dH5NyGVPUyRCtLwTFyE6M0X5iNvtAibD_ZAK7fy2nciljidNJRUHIF1F1_astASEaGxwGX_UPY1PeM9SVcJGtgkb8u4YJCZCD757ZG2cMH45yCGTLnYjh8lYLNAGDlIPrHtSDIuweiv2iliNsZjhnN0DVA7gErS8xHO48zqGKmUDH1XM7AVnApLCPHiU--kPRDZrScBu7qTpJNH_m332c6Eb88Iu-AIimd-iUvuul9LEUP8dtGHWOoQSV7mdCrVUCGedpQW4cgYRaMzwqvL5H3oOcHWl3TuUXedko3hAXLsdarcE4RAKHoHzkb5GudLdSNL5a80ivsQRfM7NeZ_mSksnpQCBmAdNJjmmu8epXKx5Duv6BbFOi7_k4Z-tO5inFvgpBbp2cBDUKM0kFgRcdDFhp_bzR_UMJk36VhEwgwPClaSim82b5NLrkNszrHR0kmaMQqA48uNT2LDj1seN4ETI_bJoZu05opxsxVhAXXcXO7lTvHJMORGpAqO2Ke7jzA8BB_WNSUechgDECbtw30ooaw_KMFCrj445U10TicCNjtrFiKtg2jECZP-ccYOVZ362OKliyb-GewRn8jmG2X5ZgLvnfMMFSMewRo_sztUJTcQ8a6QaRs_HITE4PsjPmjx6XeSzfLMM2MXwP34iYEsSSXmWPYRiA5rEM9xLahZBVeCwS79JJWzIgZQ2-f4EYvsMaULvMg0Ot4XN5mIilfjQKlgavbLExecgMZCYOvI8fSwLxsMSC6OZFbcqvJPdGA-LDQMGmA6ujYG2Mp0hz9JH5z6eWggwLwwf0YVYSKO5tO7049qpRQOfmHGIx8jZCeoUtWRTW6VQEVmRWzjf_0saq6KkZXlO6HWzo1e3qYW_-C3Fe3xDaxQK4ESALYA2f-Qedbv1C1uXO_0y0?></g></svg>